<svg width="199" height="59" viewBox="0 0 199 59" fill="none" xmlns="http://www.w3.org/2000/svg">
<g clip-path="url(#clip0_597_13)">
<path d="M199 52.6142C199 53.3843 198.852 54.1471 198.564 54.8588C198.276 55.5703 197.853 56.2167 197.321 56.7611C196.789 57.3054 196.158 57.737 195.461 58.0313C194.767 58.3256 194.021 58.4766 193.269 58.4758H5.73795C4.21799 58.4773 2.75964 57.8607 1.68361 56.7615C0.607578 55.6623 0.00198086 54.1705 0 52.6142V5.8693C0.00197994 4.31224 0.607337 2.81961 1.68315 1.71916C2.75897 0.618711 4.2173 0.000404168 5.73795 0H193.269C194.021 -2.6215e-08 194.767 0.151825 195.461 0.446805C196.156 0.741783 196.789 1.17414 197.321 1.71917C197.853 2.26422 198.275 2.91124 198.562 3.62334C198.85 4.33543 198.998 5.09861 198.998 5.8693L199 52.6142Z" fill="white"/>
<path d="M199 52.6142C199 53.3843 198.852 54.1471 198.564 54.8588C198.276 55.5703 197.853 56.2167 197.321 56.7611C196.789 57.3054 196.158 57.737 195.461 58.0313C194.767 58.3256 194.021 58.4766 193.269 58.4758H5.73795C4.21799 58.4773 2.75964 57.8607 1.68361 56.7615C0.607578 55.6623 0.00198086 54.1705 0 52.6142V5.8693C0.00197994 4.31224 0.607337 2.81961 1.68315 1.71916C2.75897 0.618711 4.2173 0.000404168 5.73795 0H193.269C194.021 -2.6215e-08 194.767 0.151825 195.461 0.446805C196.156 0.741783 196.789 1.17414 197.321 1.71917C197.853 2.26422 198.275 2.91124 198.562 3.62334C198.85 4.33543 198.998 5.09861 198.998 5.8693L199 52.6142Z" fill="black"/>
<path d="M43.7003 28.9166C43.6571 23.984 47.6447 21.5842 47.827 21.4724C45.5688 18.1008 42.0682 17.6401 40.8382 17.6034C37.8982 17.2866 35.0464 19.4049 33.5488 19.4049C32.0212 19.4049 29.715 17.634 27.2295 17.6861C24.0308 17.7366 21.0386 19.6327 19.3974 22.5774C16.0106 28.5814 18.5366 37.4045 21.7814 42.2576C23.4045 44.6358 25.3013 47.2882 27.784 47.1948C30.2127 47.0937 31.1199 45.6108 34.051 45.6108C36.955 45.6108 37.807 47.1948 40.3389 47.1352C42.9456 47.0937 44.5868 44.7476 46.1531 42.3494C48.0289 39.6267 48.7822 36.9422 48.8121 36.8045C48.7522 36.7831 43.7512 34.8273 43.7003 28.9166ZM38.9175 14.4109C40.2238 12.7381 41.1177 10.4623 40.8695 8.15283C38.9788 8.23855 36.6143 9.49198 35.2526 11.1281C34.0479 12.5697 32.9719 14.9328 33.2498 17.155C35.3736 17.3172 37.5543 16.0577 38.9175 14.4109Z" fill="white"/>
<path d="M78.8797 46.8536H75.4854L73.6261 40.871H67.1632L65.3921 46.8536H62.0874L68.492 26.4862H72.4468L78.8797 46.8536ZM73.0655 38.3611L71.3841 33.0426C71.2063 32.4992 70.8714 31.2199 70.3812 29.2057H70.3215C70.1241 30.0719 69.8088 31.3515 69.3768 33.0426L67.7236 38.3611H73.0655ZM95.3179 39.3298C95.3179 41.8275 94.6557 43.8018 93.33 45.2512C92.1433 46.5412 90.668 47.1856 88.9088 47.1856C87.0091 47.1856 85.643 46.4924 84.8136 45.1026V52.8085H81.6269V36.9943C81.6269 35.4256 81.5865 33.817 81.5089 32.1672H84.3114L84.4892 34.4951H84.5489C85.6116 32.7411 87.2244 31.8642 89.3886 31.8642C91.0806 31.8642 92.493 32.5483 93.6229 33.918C94.7514 35.2909 95.3179 37.0937 95.3179 39.3298ZM92.0715 39.4491C92.0715 38.0196 91.7576 36.8413 91.1269 35.9122C90.4378 34.9464 89.5127 34.4628 88.3529 34.4628C87.5666 34.4628 86.8522 34.7322 86.214 35.2634C85.5743 35.799 85.1558 36.4983 84.9599 37.3647C84.8725 37.6886 84.8228 38.022 84.8119 38.3579V40.8081C84.8119 41.8749 85.1318 42.7763 85.7715 43.514C86.4112 44.2487 87.2423 44.6175 88.2646 44.6175C89.4647 44.6175 90.399 44.1416 91.0671 43.1972C91.7366 42.2499 92.0715 41.0009 92.0715 39.4491ZM111.814 39.3298C111.814 41.8275 111.152 43.8018 109.826 45.2512C108.638 46.5412 107.164 47.1856 105.404 47.1856C103.504 47.1856 102.138 46.4924 101.308 45.1026V52.8085H98.1218V36.9943C98.1218 35.4256 98.0814 33.817 98.0036 32.1672H100.806L100.984 34.4951H101.044C102.105 32.7411 103.718 31.8642 105.884 31.8642C107.574 31.8642 108.986 32.5483 110.119 33.918C111.246 35.2909 111.814 37.0937 111.814 39.3298ZM108.566 39.4491C108.566 38.0196 108.251 36.8413 107.62 35.9122C106.931 34.9464 106.009 34.4628 104.849 34.4628C104.063 34.4628 103.349 34.7322 102.707 35.2634C102.068 35.799 101.651 36.4983 101.455 37.3647C101.358 37.7687 101.305 38.0978 101.305 38.3579V40.8081C101.305 41.8749 101.627 42.7763 102.264 43.514C102.903 44.2471 103.734 44.6175 104.76 44.6175C105.961 44.6175 106.895 44.1416 107.562 43.1972C108.232 42.2499 108.566 41.0009 108.566 39.4491ZM130.258 41.1403C130.258 42.8744 129.666 44.2839 128.49 45.3719C127.196 46.5597 125.389 47.155 123.072 47.155C120.932 47.155 119.216 46.7326 117.921 45.8861L118.658 43.1666C120.056 44.0146 121.591 44.437 123.262 44.437C124.463 44.437 125.398 44.1584 126.064 43.6058C126.732 43.0517 127.07 42.3111 127.07 41.3867C127.07 40.5586 126.791 39.8654 126.242 39.3006C125.691 38.7376 124.779 38.2125 123.498 37.7305C120.015 36.4004 118.273 34.4553 118.273 31.8963C118.273 30.2251 118.888 28.8569 120.117 27.787C121.346 26.7187 122.975 26.1846 125.001 26.1846C126.811 26.1846 128.32 26.5076 129.517 27.152L128.717 29.8118C127.59 29.1875 126.318 28.8752 124.895 28.8752C123.771 28.8752 122.89 29.1584 122.259 29.7216C121.728 30.2251 121.459 30.8387 121.459 31.5672C121.459 32.3707 121.766 33.038 122.375 33.5614C122.905 34.0436 123.87 34.5685 125.266 35.1317C126.979 35.8388 128.237 36.6622 129.043 37.6081C129.855 38.5537 130.258 39.7337 130.258 41.1403ZM140.821 34.6159H137.308V41.7464C137.308 43.5599 137.927 44.4644 139.168 44.4644C139.737 44.4644 140.21 44.4154 140.583 44.3129L140.671 46.7907C140.044 47.0309 139.217 47.1519 138.193 47.1519C136.935 47.1519 135.951 46.7586 135.241 45.9719C134.534 45.1853 134.179 43.8676 134.179 42.0126V34.6098H132.086V32.1611H134.179V29.4722L137.308 28.5047V32.1611H140.821V34.6159ZM156.637 39.3895C156.637 41.6468 156.006 43.5003 154.748 44.9495C153.431 46.4419 151.679 47.1856 149.496 47.1856C147.388 47.1856 145.713 46.4708 144.463 45.043C143.214 43.6121 142.589 41.8091 142.589 39.6344C142.589 37.3584 143.235 35.4944 144.522 34.045C145.811 32.5942 147.548 31.8689 149.732 31.8689C151.836 31.8689 153.527 32.585 154.806 34.0144C156.029 35.4011 156.637 37.1918 156.637 39.3895ZM153.334 39.4644C153.334 38.1192 153.05 36.9652 152.481 35.9994C151.812 34.8332 150.856 34.2502 149.617 34.2502C148.34 34.2502 147.361 34.8332 146.695 35.9994C146.124 36.9652 145.84 38.1391 145.84 39.5256C145.84 40.8724 146.124 42.0296 146.695 42.9922C147.384 44.1584 148.345 44.7415 149.59 44.7415C150.808 44.7415 151.763 44.146 152.454 42.9631C153.04 41.9744 153.334 40.8127 153.334 39.4644ZM166.999 35.0368C166.668 34.9756 166.332 34.9453 165.995 34.9464C164.874 34.9464 164.007 35.3781 163.397 36.2474C162.868 37.0127 162.602 37.98 162.602 39.1476V46.8536H159.416V36.7922C159.418 35.2507 159.388 33.7091 159.323 32.1688H162.099L162.215 34.9787H162.303C162.641 34.0129 163.17 33.234 163.897 32.6508C164.562 32.1414 165.369 31.8653 166.2 31.8642C166.494 31.8642 166.76 31.8856 166.997 31.9238L166.999 35.0368ZM181.251 38.8155C181.258 39.3115 181.22 39.8071 181.135 40.2955H171.575C171.61 41.7464 172.074 42.8574 172.962 43.6228C173.767 44.3053 174.809 44.6481 176.089 44.6481C177.504 44.6481 178.795 44.4185 179.957 43.9548L180.456 46.2184C179.099 46.8244 177.496 47.1259 175.647 47.1259C173.424 47.1259 171.678 46.4555 170.407 45.118C169.14 43.7787 168.505 41.9791 168.505 39.7247C168.505 37.5116 169.095 35.6673 170.277 34.1966C171.515 32.6263 173.187 31.8412 175.292 31.8412C177.359 31.8412 178.924 32.6263 179.986 34.1966C180.828 35.4409 181.251 36.9836 181.251 38.8155ZM178.212 37.9693C178.235 37.0004 178.026 36.1663 177.594 35.4608C177.042 34.5517 176.193 34.0987 175.056 34.0987C174.014 34.0987 173.165 34.541 172.519 35.4286C171.989 36.1342 171.673 36.9821 171.576 37.9661L178.212 37.9693Z" fill="white"/>
<path d="M66.2443 19.2853C65.3578 19.2853 64.5911 19.241 63.9529 19.166V9.31898C64.8455 9.17778 65.7475 9.10818 66.6508 9.11084C70.3051 9.11084 71.9881 10.952 71.9881 13.9532C71.9881 17.4151 70.0003 19.2853 66.2443 19.2853ZM66.7792 10.3735C66.2861 10.3735 65.866 10.4041 65.5177 10.4775V17.963C65.7061 17.9936 66.0679 18.0074 66.5761 18.0074C68.9704 18.0074 70.3335 16.6116 70.3335 13.9976C70.3335 11.6667 69.1005 10.3735 66.7792 10.3735ZM77.2329 19.3603C75.1732 19.3603 73.8385 17.7855 73.8385 15.6474C73.8385 13.4191 75.2016 11.8305 77.3494 11.8305C79.3792 11.8305 80.7438 13.3303 80.7438 15.5296C80.7438 17.7855 79.3374 19.3603 77.2329 19.3603ZM77.2926 13.0028C76.1612 13.0028 75.4363 14.0863 75.4363 15.6015C75.4363 17.0876 76.1762 18.1711 77.2777 18.1711C78.3793 18.1711 79.119 17.0126 79.119 15.5709C79.119 14.1017 78.3941 13.0028 77.2926 13.0028ZM92.4888 11.9789L90.284 19.1966H88.8478L87.9345 16.0622C87.7075 15.2955 87.5185 14.5175 87.3681 13.7313H87.3381C87.223 14.5179 87.0049 15.3061 86.7731 16.0622L85.8016 19.1966H84.3504L82.2757 11.9789H83.8854L84.6836 15.4102C84.8719 16.2275 85.0304 16.9988 85.1619 17.7273H85.1918C85.3068 17.1197 85.4952 16.3606 85.7718 15.4255L86.7731 11.9805H88.0496L89.0077 15.352C89.2393 16.1693 89.4276 16.9713 89.5741 17.7288H89.6159C89.7176 16.9866 89.8775 16.1984 90.0942 15.352L90.9507 11.9805L92.4888 11.9789ZM100.605 19.1966H99.0382V15.0521C99.0382 13.7757 98.5599 13.1359 97.6168 13.1359C96.6886 13.1359 96.0505 13.9532 96.0505 14.9036V19.1966H94.484V14.042C94.484 13.4038 94.4692 12.7196 94.4257 11.9774H95.8037L95.877 13.0916H95.9204C96.3419 12.3202 97.1967 11.8305 98.1548 11.8305C99.6347 11.8305 100.606 12.989 100.606 14.8745L100.605 19.1966ZM104.924 19.1966H103.356V8.66699H104.924V19.1966ZM110.635 19.3603C108.577 19.3603 107.241 17.7855 107.241 15.6474C107.241 13.4191 108.604 11.8305 110.75 11.8305C112.782 11.8305 114.145 13.3303 114.145 15.5296C114.146 17.7855 112.738 19.3603 110.635 19.3603ZM110.693 13.0028C109.562 13.0028 108.837 14.0863 108.837 15.6015C108.837 17.0876 109.579 18.1711 110.677 18.1711C111.78 18.1711 112.518 17.0126 112.518 15.5709C112.52 14.1017 111.796 13.0028 110.693 13.0028ZM120.321 19.1966L120.207 18.3655H120.165C119.687 19.0343 118.989 19.3603 118.104 19.3603C116.841 19.3603 115.944 18.4543 115.944 17.236C115.944 15.4546 117.452 14.5333 120.063 14.5333V14.4001C120.063 13.4497 119.572 12.9737 118.6 12.9737C117.905 12.9737 117.295 13.1528 116.759 13.5094L116.44 12.4549C117.092 12.0386 117.905 11.8305 118.86 11.8305C120.702 11.8305 121.631 12.8253 121.631 14.8164V17.4748C121.631 18.2033 121.663 18.7681 121.733 19.1981L120.321 19.1966ZM120.105 15.6015C118.365 15.6015 117.493 16.0331 117.493 17.057C117.493 17.8146 117.942 18.1849 118.567 18.1849C119.364 18.1849 120.105 17.562 120.105 16.7157V15.6015ZM129.238 19.1966L129.164 18.038H129.121C128.671 18.9134 127.915 19.3603 126.858 19.3603C125.159 19.3603 123.9 17.8299 123.9 15.6765C123.9 13.4191 125.205 11.8289 126.987 11.8289C127.93 11.8289 128.598 12.1549 128.974 12.81H129.006V8.66699H130.574V17.2513C130.574 17.9492 130.59 18.6027 130.632 19.1966H129.238ZM129.006 14.9495C129.006 13.9394 128.353 13.0778 127.356 13.0778C126.194 13.0778 125.484 14.1323 125.484 15.6168C125.484 17.0723 126.221 18.0686 127.324 18.0686C128.309 18.0686 129.006 17.1917 129.006 16.1525V14.9495ZM140.515 19.3603C138.456 19.3603 137.122 17.7855 137.122 15.6474C137.122 13.4191 138.485 11.8305 140.631 11.8305C142.662 11.8305 144.026 13.3303 144.026 15.5296C144.027 17.7855 142.621 19.3603 140.515 19.3603ZM140.573 13.0028C139.443 13.0028 138.718 14.0863 138.718 15.6015C138.718 17.0876 139.458 18.1711 140.558 18.1711C141.661 18.1711 142.399 17.0126 142.399 15.5709C142.402 14.1017 141.677 13.0028 140.573 13.0028ZM152.449 19.1966H150.882V15.0521C150.882 13.7757 150.403 13.1359 149.46 13.1359C148.532 13.1359 147.895 13.9532 147.895 14.9036V19.1966H146.327V14.042C146.327 13.4038 146.312 12.7196 146.269 11.9774H147.647L147.72 13.0916H147.764C148.184 12.3202 149.04 11.8289 149.997 11.8289C151.476 11.8289 152.449 12.9875 152.449 14.873V19.1966ZM162.988 13.1819H161.265V16.6866C161.265 17.5789 161.567 18.0242 162.177 18.0242C162.453 18.0242 162.685 17.9936 162.871 17.9492L162.915 19.1674C162.611 19.2869 162.205 19.3465 161.7 19.3465C160.465 19.3465 159.727 18.6486 159.727 16.8213V13.1819H158.698V11.9789H159.727V10.6566L161.265 10.1806V11.9774H162.988V13.1819ZM171.28 19.1966H169.716V15.0827C169.716 13.791 169.239 13.1375 168.294 13.1375C167.482 13.1375 166.726 13.7022 166.726 14.8455V19.1966H165.161V8.66699H166.726V13.0028H166.758C167.251 12.2161 167.965 11.8289 168.877 11.8289C170.369 11.8289 171.28 13.0166 171.28 14.9036V19.1966ZM179.776 15.9734H175.075C175.105 17.3401 175.989 18.1115 177.296 18.1115C177.991 18.1115 178.631 17.9921 179.196 17.7702L179.44 18.8844C178.773 19.1813 177.988 19.3297 177.075 19.3297C174.871 19.3297 173.566 17.9033 173.566 15.6918C173.566 13.4788 174.902 11.8152 176.899 11.8152C178.7 11.8152 179.83 13.1819 179.83 15.2464C179.84 15.4901 179.822 15.7341 179.776 15.9734ZM178.34 14.8302C178.34 13.716 177.791 12.9293 176.79 12.9293C175.89 12.9293 175.179 13.7313 175.077 14.8302H178.34Z" fill="white"/>
</g>
<defs>
<clipPath id="clip0_597_13">
<rect width="199" height="59" fill="white"/>
</clipPath>
</defs>
</svg>
