<svg width="200" height="60" viewBox="0 0 200 60" fill="none" xmlns="http://www.w3.org/2000/svg">
<path d="M192.119 59.5018H8.60191C4.49112 59.5018 1.26123 56.2425 1.26123 52.0943V7.64985C1.26123 3.50168 4.49112 0.242432 8.60191 0.242432H192.119C196.229 0.242432 199.459 3.50168 199.459 7.64985V52.0943C199.459 56.2425 196.229 59.5018 192.119 59.5018Z" fill="black"/>
<path d="M70.8508 15.3537C70.8508 16.5389 70.5573 17.576 69.8233 18.3166C68.9424 19.2055 67.9146 19.6501 66.5933 19.6501C65.2719 19.6501 64.2443 19.2055 63.3634 18.3166C62.4825 17.4278 62.042 16.3908 62.042 15.0574C62.042 13.7241 62.4825 12.6871 63.3634 11.7982C64.2443 10.9093 65.2719 10.4648 66.5933 10.4648C67.1806 10.4648 67.7678 10.613 68.3551 10.9093C68.9424 11.2056 69.3827 11.5019 69.6764 11.9463L68.9424 12.6871C68.3551 11.9463 67.6209 11.65 66.5933 11.65C65.7124 11.65 64.8315 11.9463 64.2443 12.6871C63.5103 13.2796 63.2166 14.1685 63.2166 15.2056C63.2166 16.2426 63.5103 17.1315 64.2443 17.7241C64.9784 18.3166 65.7124 18.7612 66.5933 18.7612C67.6209 18.7612 68.3551 18.4648 69.0892 17.7241C69.5296 17.2796 69.8233 16.6871 69.8233 15.9463H66.5933V14.7611H70.8508V15.3537ZM77.6043 11.65H73.6404V14.4648H77.3106V15.5019H73.6404V18.3166H77.6043V19.5019H72.4658V10.613H77.6043V11.65ZM82.4492 19.5019H81.2746V11.65H78.7787V10.613H84.9451V11.65H82.4492V19.5019ZM89.2025 19.5019V10.613H90.3771V19.5019H89.2025ZM95.3687 19.5019H94.1942V11.65H91.6984V10.613H97.7177V11.65H95.222V19.5019H95.3687ZM109.316 18.3166C108.435 19.2055 107.407 19.6501 106.086 19.6501C104.765 19.6501 103.737 19.2055 102.856 18.3166C101.975 17.4278 101.535 16.3908 101.535 15.0574C101.535 13.7241 101.975 12.6871 102.856 11.7982C103.737 10.9093 104.765 10.4648 106.086 10.4648C107.407 10.4648 108.435 10.9093 109.316 11.7982C110.197 12.6871 110.637 13.7241 110.637 15.0574C110.637 16.3908 110.197 17.4278 109.316 18.3166ZM103.737 17.576C104.324 18.1685 105.205 18.613 106.086 18.613C106.967 18.613 107.848 18.3166 108.435 17.576C109.022 16.9834 109.463 16.0945 109.463 15.0574C109.463 14.0204 109.169 13.1315 108.435 12.5389C107.848 11.9463 106.967 11.5019 106.086 11.5019C105.205 11.5019 104.324 11.7982 103.737 12.5389C103.15 13.1315 102.709 14.0204 102.709 15.0574C102.709 16.0945 103.003 16.9834 103.737 17.576ZM112.252 19.5019V10.613H113.574L117.831 17.576V10.613H119.006V19.5019H117.831L113.28 12.2426V19.5019H112.252Z" fill="white" stroke="white" stroke-width="0.165926" stroke-miterlimit="10"/>
<path d="M101.241 32.5388C97.7176 32.5388 94.9282 35.2056 94.9282 38.9092C94.9282 42.4648 97.7176 45.2796 101.241 45.2796C104.765 45.2796 107.554 42.613 107.554 38.9092C107.554 35.0574 104.765 32.5388 101.241 32.5388ZM101.241 42.613C99.3326 42.613 97.7176 40.9834 97.7176 38.7612C97.7176 36.5388 99.3326 34.9092 101.241 34.9092C103.15 34.9092 104.765 36.3908 104.765 38.7612C104.765 40.9834 103.15 42.613 101.241 42.613ZM87.5875 32.5388C84.0641 32.5388 81.2745 35.2056 81.2745 38.9092C81.2745 42.4648 84.0641 45.2796 87.5875 45.2796C91.1111 45.2796 93.9005 42.613 93.9005 38.9092C93.9005 35.0574 91.1111 32.5388 87.5875 32.5388ZM87.5875 42.613C85.679 42.613 84.0641 40.9834 84.0641 38.7612C84.0641 36.5388 85.679 34.9092 87.5875 34.9092C89.4962 34.9092 91.1111 36.3908 91.1111 38.7612C91.1111 40.9834 89.4962 42.613 87.5875 42.613ZM71.2913 34.4648V37.1316H77.6043C77.4574 38.613 76.8702 39.7981 76.1362 40.5388C75.2553 41.4277 73.7871 42.4648 71.2913 42.4648C67.3273 42.4648 64.3911 39.3537 64.3911 35.3537C64.3911 31.3537 67.4742 28.2427 71.2913 28.2427C73.3466 28.2427 74.9616 29.1316 76.1362 30.1685L78.0446 28.2427C76.4297 26.7612 74.3744 25.5759 71.4381 25.5759C66.1527 25.5759 61.6016 30.0205 61.6016 35.3537C61.6016 40.687 66.1527 45.1316 71.4381 45.1316C74.3744 45.1316 76.4297 44.2427 78.1915 42.3167C79.9533 40.5388 80.5405 38.0205 80.5405 36.0945C80.5405 35.5019 80.5405 34.9092 80.3936 34.4648H71.2913ZM137.945 36.5388C137.357 35.0574 135.889 32.5388 132.659 32.5388C129.429 32.5388 126.787 35.0574 126.787 38.9092C126.787 42.4648 129.429 45.2796 132.953 45.2796C135.742 45.2796 137.504 43.5019 138.091 42.4648L136.036 40.9834C135.302 42.0205 134.421 42.7612 132.953 42.7612C131.485 42.7612 130.604 42.1685 129.87 40.8352L138.238 37.2796L137.945 36.5388ZM129.429 38.613C129.429 36.2427 131.338 34.9092 132.659 34.9092C133.687 34.9092 134.715 35.5019 135.008 36.2427L129.429 38.613ZM122.529 44.687H125.319V26.1685H122.529V44.687ZM118.125 33.8723C117.391 33.1316 116.216 32.3908 114.748 32.3908C111.665 32.3908 108.729 35.2056 108.729 38.7612C108.729 42.3167 111.518 44.9834 114.748 44.9834C116.216 44.9834 117.391 44.2427 117.978 43.5019H118.125V44.3908C118.125 46.7612 116.803 48.0945 114.748 48.0945C113.133 48.0945 111.958 46.9092 111.665 45.8723L109.316 46.9092C110.05 48.5388 111.812 50.613 114.895 50.613C118.125 50.613 120.767 48.687 120.767 44.0945V32.8352H118.125V33.8723ZM114.895 42.613C112.986 42.613 111.371 40.9834 111.371 38.7612C111.371 36.5388 112.986 34.9092 114.895 34.9092C116.803 34.9092 118.272 36.5388 118.272 38.7612C118.272 40.9834 116.803 42.613 114.895 42.613ZM150.717 26.1685H144.111V44.687H146.9V37.7241H150.717C153.8 37.7241 156.737 35.5019 156.737 31.9463C156.737 28.3908 153.8 26.1685 150.717 26.1685ZM150.864 35.0574H146.9V28.687H150.864C152.92 28.687 154.094 30.4648 154.094 31.7981C153.947 33.4277 152.773 35.0574 150.864 35.0574ZM167.748 32.3908C165.692 32.3908 163.637 33.2796 162.903 35.2056L165.399 36.2427C165.986 35.2056 166.867 34.9092 167.895 34.9092C169.363 34.9092 170.684 35.7981 170.831 37.2796V37.4277C170.39 37.1316 169.216 36.687 168.041 36.687C165.399 36.687 162.756 38.1685 162.756 40.8352C162.756 43.3537 164.958 44.9834 167.307 44.9834C169.216 44.9834 170.097 44.0945 170.831 43.2056H170.978V44.687H173.62V37.5759C173.327 34.3167 170.831 32.3908 167.748 32.3908ZM167.454 42.613C166.573 42.613 165.252 42.1685 165.252 40.9834C165.252 39.5019 166.867 39.0574 168.188 39.0574C169.363 39.0574 169.95 39.3537 170.684 39.6499C170.39 41.4277 168.922 42.613 167.454 42.613ZM182.87 32.8352L179.786 40.8352H179.64L176.41 32.8352H173.473L178.318 44.0945L175.529 50.3167H178.318L185.805 32.8352H182.87ZM158.205 44.687H160.994V26.1685H158.205V44.687Z" fill="white"/>
<path d="M16.5299 11.3538C16.0895 11.7982 15.9426 12.5389 15.9426 13.4278V46.1687C15.9426 47.0574 16.2363 47.7983 16.6767 48.2427L16.8235 48.3908L35.0283 30.0205V29.7241L16.5299 11.3538Z" fill="url(#paint0_linear_597_2)"/>
<path d="M40.9006 36.2424L34.8813 30.1684V29.7239L40.9006 23.6499L41.0475 23.7981L48.2413 27.9461C50.2967 29.1314 50.2967 31.0574 48.2413 32.2424L40.9006 36.2424Z" fill="url(#paint1_linear_597_2)"/>
<path d="M41.0477 36.0943L34.8816 29.8721L16.5298 48.3906C17.2639 49.1313 18.2916 49.1313 19.6129 48.5388L41.0477 36.0943Z" fill="url(#paint2_linear_597_2)"/>
<path d="M41.0477 23.6499L19.6129 11.3537C18.2916 10.613 17.2639 10.7611 16.5298 11.5019L34.8816 29.8723L41.0477 23.6499Z" fill="url(#paint3_linear_597_2)"/>
<path opacity="0.2" d="M40.9008 35.9463L19.6129 48.0945C18.4383 48.8352 17.4107 48.687 16.6766 48.0945L16.5298 48.2425L16.6766 48.3907C17.4107 48.9834 18.4383 49.1314 19.6129 48.3907L40.9008 35.9463Z" fill="black"/>
<path opacity="0.12" d="M16.5299 48.0943C16.0895 47.6499 15.9426 46.9092 15.9426 46.0202V46.1682C15.9426 47.0572 16.2363 47.7979 16.6767 48.2424V48.0943H16.5299ZM48.2417 31.7979L40.9009 35.9461L41.0478 36.0943L48.2417 31.9461C49.2692 31.3535 49.7098 30.6128 49.7098 29.8721C49.7098 30.6128 49.1226 31.2053 48.2417 31.7979Z" fill="black"/>
<path opacity="0.25" d="M19.613 11.5019L48.2417 27.9463C49.1226 28.539 49.7098 29.1315 49.7098 29.8723C49.7098 29.1315 49.2692 28.3908 48.2417 27.7983L19.613 11.3537C17.5576 10.1685 15.9426 11.0574 15.9426 13.4278V13.576C15.9426 11.3537 17.5576 10.3167 19.613 11.5019Z" fill="white"/>
<defs>
<linearGradient id="paint0_linear_597_2" x1="33.2667" y1="13.1463" x2="8.40395" y2="37.7836" gradientUnits="userSpaceOnUse">
<stop stop-color="#00A0FF"/>
<stop offset="0.007" stop-color="#00A1FF"/>
<stop offset="0.26" stop-color="#00BEFF"/>
<stop offset="0.512" stop-color="#00D2FF"/>
<stop offset="0.76" stop-color="#00DFFF"/>
<stop offset="1" stop-color="#00E3FF"/>
</linearGradient>
<linearGradient id="paint1_linear_597_2" x1="50.934" y1="29.8735" x2="15.4095" y2="29.8735" gradientUnits="userSpaceOnUse">
<stop stop-color="#FFE000"/>
<stop offset="0.409" stop-color="#FFBD00"/>
<stop offset="0.775" stop-color="#FFA500"/>
<stop offset="1" stop-color="#FF9C00"/>
</linearGradient>
<linearGradient id="paint2_linear_597_2" x1="37.7106" y1="33.2735" x2="3.99641" y2="66.6841" gradientUnits="userSpaceOnUse">
<stop stop-color="#FF3A44"/>
<stop offset="1" stop-color="#C31162"/>
</linearGradient>
<linearGradient id="paint3_linear_597_2" x1="11.9742" y1="0.503327" x2="27.0299" y2="15.4234" gradientUnits="userSpaceOnUse">
<stop stop-color="#32A071"/>
<stop offset="0.069" stop-color="#2DA771"/>
<stop offset="0.476" stop-color="#15CF74"/>
<stop offset="0.801" stop-color="#06E775"/>
<stop offset="1" stop-color="#00F076"/>
</linearGradient>
</defs>
</svg>
